<?xml version="1.0" encoding="utf-8"?>
<!-- Generator: Adobe Illustrator 16.0.0, SVG Export Plug-In . SVG Version: 6.00 Build 0)  -->
<!DOCTYPE svg PUBLIC "-//W3C//DTD SVG 1.1//EN" "http://www.w3.org/Graphics/SVG/1.1/DTD/svg11.dtd">
<svg version="1.1" id="New_logo" xmlns="http://www.w3.org/2000/svg" xmlns:xlink="http://www.w3.org/1999/xlink" x="0px" y="0px"
	 width="60px" height="60px" viewBox="0 0 60 60" enable-background="new 0 0 60 60" xml:space="preserve">
<g>
	<g id="logo">
		<g id="feuille">
			<path fill="#F59B20" d="M27.824,0.73c0,0,6.918,4.588,8.109,17.199c0,0,2.338,30.297-13.336,36.237c0,0,1.402,0.262,2.983,0.187
				c0,0,19.382-12.225,10.491-35.958C36.071,18.395,33.414,10.11,27.824,0.73z"/>
			<linearGradient id="SVGID_1_" gradientUnits="userSpaceOnUse" x1="45.875" y1="24.4146" x2="45.875" y2="-8.7238">
				<stop  offset="0" style="stop-color:#F4982B"/>
				<stop  offset="0.6783" style="stop-color:#F49829"/>
				<stop  offset="0.9223" style="stop-color:#F49621"/>
				<stop  offset="1" style="stop-color:#F4951B"/>
			</linearGradient>
			<path fill="url(#SVGID_1_)" d="M37.94,21.422c0,0-3.611-5.587,0.971-10.194c0,0,1.606-1.769,6.188-2.932
				c0,0,4.582-0.978,7.059-6.236c0,0,5.133,7.167,1.976,16.601c0,0-1.564,4.248-4.821,6.188c-2.46,1.463-6.184,1.923-10.079-1.893
				c0,0,11.779-6.453,12.218-11.916C51.451,11.039,47.834,19.17,37.94,21.422z"/>
		</g>
		<path d="M40.943,38.374c0,2.905-0.694,5.613-2.08,8.122c-1.388,2.511-3.26,4.449-5.619,5.814c-2.359,1.368-4.951,2.05-7.771,2.05
			c-2.822,0-5.412-0.682-7.771-2.05c-2.36-1.365-4.233-3.304-5.62-5.814c-1.387-2.509-2.08-5.217-2.08-8.122
			c0-4.504,1.521-8.343,4.561-11.518c3.041-3.176,6.678-4.762,10.91-4.762c2.013,0,3.893,0.367,5.64,1.094
			c0.176-1.84,0.82-3.552,1.536-4.95c-2.2-0.798-4.585-1.203-7.159-1.203c-6.119,0-11.182,2.252-15.188,6.756
			c-3.643,4.086-5.464,8.91-5.464,14.473c0,5.611,1.925,10.516,5.773,14.713c3.848,4.195,8.808,6.294,14.878,6.294
			c6.046,0,10.994-2.099,14.842-6.294c3.848-4.197,5.772-9.102,5.772-14.713c0-3.003-0.531-5.787-1.584-8.356
			c-1.766,1.086-3.445,1.656-4.837,1.945C40.521,33.846,40.943,36.018,40.943,38.374z"/>
	</g>
</g>
</svg>
